<?xml version="1.0" encoding="utf-8"?>
<!-- Generator: Adobe Illustrator 26.2.0, SVG Export Plug-In . SVG Version: 6.00 Build 0)  -->
<svg version="1.1" id="Laag_1" xmlns="http://www.w3.org/2000/svg" xmlns:xlink="http://www.w3.org/1999/xlink" x="0px" y="0px"
	 viewBox="0 0 1000 1000" style="enable-background:new 0 0 1000 1000;" xml:space="preserve">
<style type="text/css">
	.st0{fill:#C2D591;}
	.st1{fill:#A1A176;}
	.st2{fill:#7EC864;}
	.st3{fill:#F6DFB4;}
	.st4{fill:#9E9F74;}
	.st5{fill:#EFDEB0;}
	.st6{fill:#77C760;}
	.st7{fill:#637449;}
	.st8{fill:#ACA97E;}
	.st9{fill:#898F64;}
	.st10{fill:#D6C89D;}
	.st11{fill:#BEB68B;}
	.st12{fill:#AFAC81;}
	.st13{fill:#9B9D72;}
	.st14{fill:#6B794E;}
	.st15{fill:#7D875C;}
	.st16{fill:#4ABE42;}
	.st17{fill:#C8D796;}
	.st18{fill:#AAD182;}
	.st19{fill:#38BA36;}
	.st20{fill:#425C31;}
	.st21{fill:#40BC3B;}
	.st22{fill:#C1B98E;}
	.st23{fill:#75C65F;}
	.st24{fill:#62C352;}
	.st25{fill:#7B865B;}
	.st26{fill:#BED58F;}
	.st27{fill:#C1D591;}
	.st28{fill:#70C55B;}
	.st29{fill:#58C14B;}
	.st30{fill:#365328;}
	.st31{fill:#D5D99E;}
	.st32{fill:#91966B;}
	.st33{fill:#E1DCA6;}
	.st34{fill:#717E53;}
	.st35{fill:#4C6338;}
	.st36{fill:#A4D07E;}
	.st37{fill:#758156;}
	.st38{fill:#5F7146;}
	.st39{fill:#3EBC3A;}
	.st40{fill:#E9DDAB;}
	.st41{fill:#C0B88D;}
	.st42{fill:#D8C99E;}
	.st43{fill:#7AC762;}
	.st44{fill:#8B9166;}
	.st45{fill:#818A5F;}
	.st46{fill:#EEDEAF;}
	.st47{fill:#8ACA6C;}
	.st48{fill:#56C049;}
	.st49{fill:#86CA6A;}
	.st50{fill:#52C047;}
	.st51{fill:#EBDEAD;}
	.st52{fill:#E7D5AA;}
	.st53{fill:#D4C79C;}
	.st54{fill:#BAD48D;}
	.st55{fill:#415B30;}
	.st56{fill:#C6D694;}
	.st57{fill:#C4D693;}
	.st58{fill:#33B933;}
	.st59{fill:#7BC862;}
	.st60{fill:#DACA9F;}
	.st61{fill:#ABD182;}
	.st62{fill:#46BD3F;}
	.st63{fill:#768257;}
	.st64{fill:#4CBE43;}
	.st65{fill:#C3D692;}
	.st66{fill:#B8D48B;}
	.st67{fill:#6AC457;}
	.st68{fill:#32B931;}
	.st69{fill:#DEDBA5;}
	.st70{fill:#D9DAA1;}
	.st71{fill:#3DBB39;}
	.st72{fill:#96CD74;}
	.st73{fill:#35BA34;}
	.st74{fill:#76C75F;}
	.st75{fill:#3FBC3A;}
	.st76{fill:#BFB78C;}
	.st77{fill:#80C865;}
	.st78{fill:#7C865B;}
	.st79{fill:#CABF94;}
	.st80{fill:#9BCE78;}
</style>
<g transform="scale(0.9652509652509652)">
	<path class="st0" d="M129.5,0c35.8,0,64.8,29,64.8,64.8L129.5,0c0,35.8,29,64.8,64.8,64.8"/>
	<path class="st1" d="M291.4,32.4c17.9,0,32.4,14.5,32.4,32.4l0,0L291.4,32.4c0,17.9,14.5,32.4,32.4,32.4l0,0"/>
	<path class="st2" d="M323.8,0c35.8,0,64.8,29,64.8,64.8L323.8,0c0,35.8,29,64.8,64.8,64.8"/>
	<path class="st3" d="M453.2,32.4c0-17.9,14.5-32.4,32.4-32.4c0,0,0,0,0,0L453.2,32.4c17.9,0,32.4-14.5,32.4-32.4c0,0,0,0,0,0"/>
	<path class="st4" d="M453.2,64.8c0-17.9,14.5-32.4,32.4-32.4l0,0L453.2,64.8c17.9,0,32.4-14.5,32.4-32.4v0"/>
	<path class="st5" d="M582.8,64.8c0-35.8,29-64.8,64.8-64.8L582.8,64.8c35.8,0,64.8-29,64.8-64.8"/>
	<path class="st6" d="M777,0c35.8,0,64.8,29,64.8,64.8L777,0c0,35.8,29,64.8,64.8,64.8"/>
	<path class="st7" d="M0,129.5c0-35.8,29-64.8,64.8-64.8L0,129.5c35.8,0,64.8-29,64.8-64.8"/>
	<path class="st8" d="M64.8,64.8c17.9,0,32.4,14.5,32.4,32.4L64.8,64.8c0,17.9,14.5,32.4,32.4,32.4"/>
	<path class="st9" d="M161.9,97.1c0-17.9,14.5-32.4,32.4-32.4L161.9,97.1c17.9,0,32.4-14.5,32.4-32.4"/>
	<path class="st10" d="M194.2,97.1c0-17.9,14.5-32.4,32.4-32.4L194.2,97.1c17.9,0,32.4-14.5,32.4-32.4"/>
	<path class="st11" d="M226.6,64.8c17.9,0,32.4,14.5,32.4,32.4L226.6,64.8c0,17.9,14.5,32.4,32.4,32.4"/>
	<path class="st12" d="M226.6,97.1c17.9,0,32.4,14.5,32.4,32.4L226.6,97.1c0,17.9,14.5,32.4,32.4,32.4"/>
	<path class="st13" d="M453.2,64.8c17.9,0,32.4,14.5,32.4,32.4L453.2,64.8c0,17.9,14.5,32.4,32.4,32.4"/>
	<path class="st14" d="M485.6,64.8c17.9,0,32.4,14.5,32.4,32.4L485.6,64.8c0,17.9,14.5,32.4,32.4,32.4"/>
	<path class="st15" d="M518,129.5c0-35.8,29-64.8,64.8-64.8L518,129.5c35.8,0,64.8-29,64.8-64.8"/>
	<path class="st16" d="M582.8,97.1c0-17.9,14.5-32.4,32.4-32.4L582.8,97.1c17.9,0,32.4-14.5,32.4-32.4"/>
	<path class="st17" d="M582.8,97.1c17.9,0,32.4,14.5,32.4,32.4L582.8,97.1c0,17.9,14.5,32.4,32.4,32.4"/>
	<path class="st18" d="M841.8,97.1c17.9,0,32.4,14.5,32.4,32.4L841.8,97.1c0,17.9,14.5,32.4,32.4,32.4"/>
	<path class="st19" d="M906.5,129.5c0-35.8,29-64.8,64.7-64.8L906.5,129.5c35.8,0,64.7-29,64.7-64.8"/>
	<path class="st20" d="M971.2,129.5c0-35.8,29-64.8,64.8-64.8L971.2,129.5c35.8,0,64.8-29,64.8-64.8"/>
	<path class="st21" d="M32.4,161.9c0-17.9,14.5-32.4,32.4-32.4l0,0L32.4,161.9c17.9,0,32.4-14.5,32.4-32.4l0,0"/>
	<path class="st22" d="M0,194.3c0-17.9,14.5-32.4,32.4-32.4L0,194.3c17.9,0,32.4-14.5,32.4-32.4"/>
	<path class="st6" d="M194.2,161.9c0-17.9,14.5-32.4,32.4-32.4l0,0L194.2,161.9c17.9,0,32.4-14.5,32.4-32.4l0,0"/>
	<path class="st23" d="M226.6,161.9c0-17.9,14.5-32.4,32.4-32.4l0,0L226.6,161.9c17.9,0,32.4-14.5,32.4-32.4l0,0"/>
	<path class="st24" d="M129.5,194.2c35.8,0,64.8,29,64.8,64.8L129.5,194.2c0,35.8,29,64.8,64.8,64.8"/>
	<path class="st25" d="M194.2,226.6c0-17.9,14.5-32.4,32.4-32.4l0,0L194.2,226.6c17.9,0,32.4-14.5,32.4-32.4l0,0"/>
	<path class="st26" d="M550.4,259c0-17.9,14.5-32.4,32.4-32.4l0,0L550.4,259c17.9,0,32.4-14.5,32.4-32.4l0,0"/>
	<path class="st27" d="M712.2,259c0-35.8,29-64.8,64.8-64.8L712.2,259c35.8,0,64.8-29,64.8-64.8"/>
	<path class="st28" d="M129.5,291.4c17.9,0,32.4,14.5,32.4,32.4l0,0L129.5,291.4c0,17.9,14.5,32.4,32.4,32.4l0,0"/>
	<path class="st29" d="M194.2,323.8c0-35.8,29-64.8,64.8-64.8L194.2,323.8c35.8,0,64.8-29,64.8-64.8"/>
	<path class="st30" d="M615.1,291.4c0-17.9,14.5-32.4,32.4-32.4l0,0L615.1,291.4c17.9,0,32.4-14.5,32.4-32.4l0,0"/>
	<path class="st31" d="M712.2,323.8c0-35.8,29-64.8,64.8-64.8L712.2,323.8c35.8,0,64.8-29,64.8-64.8"/>
	<path class="st32" d="M0,323.8c17.9,0,32.4,14.5,32.4,32.4l0,0L0,323.8c0,17.9,14.5,32.4,32.4,32.4l0,0"/>
	<path class="st32" d="M32.4,323.8c17.9,0,32.4,14.5,32.4,32.4l0,0L32.4,323.8c0,17.9,14.5,32.4,32.4,32.4l0,0"/>
	<path class="st33" d="M32.4,388.5c0-17.9,14.5-32.4,32.4-32.4l0,0L32.4,388.5c17.9,0,32.4-14.5,32.4-32.4l0,0"/>
	<path class="st34" d="M453.2,323.8c35.8,0,64.8,29,64.8,64.8l0,0L453.2,323.8c0,35.8,29,64.8,64.8,64.8l0,0"/>
	<path class="st35" d="M518,388.5c0-35.8,29-64.8,64.8-64.8l0,0L518,388.5c35.8,0,64.8-29,64.8-64.8l0,0"/>
	<path class="st36" d="M647.5,323.8c17.9,0,32.4,14.5,32.4,32.4l0,0L647.5,323.8c0,17.9,14.5,32.4,32.4,32.4l0,0"/>
	<path class="st37" d="M647.5,388.5c0-17.9,14.5-32.4,32.4-32.4l0,0L647.5,388.5c17.9,0,32.4-14.5,32.4-32.4l0,0"/>
	<path class="st38" d="M194.2,453.2c0-35.8,29-64.8,64.8-64.8l0,0L194.2,453.2c35.8,0,64.8-29,64.8-64.8l0,0"/>
	<path class="st39" d="M388.5,453.2c0-35.8,29-64.8,64.8-64.8l0,0L388.5,453.2c35.8,0,64.8-29,64.8-64.8l0,0"/>
	<path class="st40" d="M841.8,420.9c17.9,0,32.4,14.5,32.4,32.4l0,0L841.8,420.9c0,17.9,14.5,32.4,32.4,32.4l0,0"/>
	<path class="st41" d="M64.8,485.6c17.9,0,32.4,14.5,32.4,32.4L64.8,485.6c0,17.9,14.5,32.4,32.4,32.4"/>
	<path class="st42" d="M841.8,518c0-35.8,29-64.8,64.8-64.8L841.8,518c35.8,0,64.8-29,64.8-64.8"/>
	<path class="st43" d="M938.9,453.2c17.9,0,32.4,14.5,32.4,32.4l0,0L938.9,453.2c0,17.9,14.5,32.4,32.4,32.4l0,0"/>
	<path class="st44" d="M323.8,582.8c0-35.8,29-64.8,64.8-64.8L323.8,582.8c35.8,0,64.8-29,64.8-64.8"/>
	<path class="st37" d="M420.9,518c17.9,0,32.4,14.5,32.4,32.4l0,0L420.9,518c0,17.9,14.5,32.4,32.4,32.4l0,0"/>
	<path class="st45" d="M453.2,518c35.8,0,64.8,29,64.8,64.8L453.2,518c0,35.8,29,64.8,64.8,64.8"/>
	<path class="st46" d="M712.2,518c35.8,0,64.8,29,64.8,64.8L712.2,518c0,35.8,29,64.8,64.8,64.8"/>
	<path class="st47" d="M1003.6,550.4c17.9,0,32.4,14.5,32.4,32.4l0,0L1003.6,550.4c0,17.9,14.5,32.4,32.4,32.4l0,0"/>
	<path class="st48" d="M64.8,647.5c0-35.8,29-64.8,64.8-64.8L64.8,647.5c35.8,0,64.8-29,64.8-64.8"/>
	<path class="st49" d="M259,647.5c0-35.8,29-64.8,64.8-64.8L259,647.5c35.8,0,64.8-29,64.8-64.8"/>
	<path class="st50" d="M323.8,582.8c35.8,0,64.8,29,64.8,64.8L323.8,582.8c0,35.8,29,64.8,64.8,64.8"/>
	<path class="st5" d="M647.5,647.5c0-17.9,14.5-32.4,32.4-32.4l0,0L647.5,647.5c17.9,0,32.4-14.5,32.4-32.4l0,0"/>
	<path class="st51" d="M64.8,712.2c0-35.8,29-64.8,64.8-64.8L64.8,712.2c35.8,0,64.8-29,64.8-64.8"/>
	<path class="st52" d="M777,647.5c35.8,0,64.8,29,64.8,64.8L777,647.5c0,35.8,29,64.8,64.8,64.8"/>
	<path class="st53" d="M906.5,712.2c0-35.8,29-64.8,64.7-64.8L906.5,712.2c35.8,0,64.7-29,64.7-64.8"/>
	<path class="st54" d="M64.8,777c0-17.9,14.5-32.4,32.4-32.4L64.8,777c17.9,0,32.4-14.5,32.4-32.4"/>
	<path class="st55" d="M129.5,777c0-35.8,29-64.8,64.8-64.8L129.5,777c35.8,0,64.8-29,64.8-64.8"/>
	<path class="st56" d="M323.8,712.2c35.8,0,64.8,29,64.8,64.8L323.8,712.2c0,35.8,29,64.8,64.8,64.8"/>
	<path class="st57" d="M453.2,777c0-35.8,29-64.8,64.8-64.8L453.2,777c35.8,0,64.8-29,64.8-64.8"/>
	<path class="st4" d="M64.8,841.8c0-35.8,29-64.8,64.8-64.8L64.8,841.8c35.8,0,64.8-29,64.8-64.8"/>
	<path class="st58" d="M129.5,777c35.8,0,64.8,29,64.8,64.8L129.5,777c0,35.8,29,64.8,64.8,64.8"/>
	<path class="st59" d="M194.2,841.8c0-35.8,29-64.8,64.8-64.8L194.2,841.8c35.8,0,64.8-29,64.8-64.8"/>
	<path class="st45" d="M259,777c35.8,0,64.8,29,64.8,64.8L259,777c0,35.8,29,64.8,64.8,64.8"/>
	<path class="st60" d="M485.6,777c17.9,0,32.4,14.5,32.4,32.4l0,0L485.6,777c0,17.9,14.5,32.4,32.4,32.4l0,0"/>
	<path class="st61" d="M518,809.4c0-17.9,14.5-32.4,32.4-32.4l0,0L518,809.4c17.9,0,32.4-14.5,32.4-32.4l0,0"/>
	<path class="st62" d="M582.8,777c35.8,0,64.8,29,64.8,64.8L582.8,777c0,35.8,29,64.8,64.8,64.8"/>
	<path class="st63" d="M647.5,841.8c0-35.8,29-64.8,64.8-64.8L647.5,841.8c35.8,0,64.8-29,64.8-64.8"/>
	<path class="st64" d="M841.8,841.8c0-35.8,29-64.8,64.8-64.8L841.8,841.8c35.8,0,64.8-29,64.8-64.8"/>
	<path class="st62" d="M906.5,841.8c0-35.8,29-64.8,64.7-64.8L906.5,841.8c35.8,0,64.7-29,64.7-64.8"/>
	<path class="st65" d="M97.1,841.8c17.9,0,32.4,14.5,32.4,32.4L97.1,841.8c0,17.9,14.5,32.4,32.4,32.4"/>
	<path class="st66" d="M97.1,906.5c0-17.9,14.5-32.4,32.4-32.4L97.1,906.5c17.9,0,32.4-14.5,32.4-32.4"/>
	<path class="st13" d="M518,906.5c0-35.8,29-64.8,64.8-64.8L518,906.5c35.8,0,64.8-29,64.8-64.8"/>
	<path class="st67" d="M712.2,906.5c0-35.8,29-64.8,64.8-64.8L712.2,906.5c35.8,0,64.8-29,64.8-64.8"/>
	<path class="st68" d="M777,906.5c0-35.8,29-64.8,64.8-64.8L777,906.5c35.8,0,64.8-29,64.8-64.8"/>
	<path class="st69" d="M971.2,841.8c35.8,0,64.8,29,64.8,64.8L971.2,841.8c0,35.8,29,64.8,64.8,64.8"/>
	<path class="st70" d="M64.8,971.2c0-35.8,29-64.7,64.8-64.7L64.8,971.2c35.8,0,64.8-29,64.8-64.7"/>
	<path class="st71" d="M518,971.2c0-35.8,29-64.7,64.8-64.7L518,971.2c35.8,0,64.8-29,64.8-64.7"/>
	<path class="st72" d="M582.8,938.9c17.9,0,32.4,14.5,32.4,32.4l0,0L582.8,938.9c0,17.9,14.5,32.4,32.4,32.4l0,0"/>
	<path class="st73" d="M712.2,971.2c0-35.8,29-64.7,64.8-64.7L712.2,971.2c35.8,0,64.8-29,64.8-64.7"/>
	<path class="st74" d="M777,906.5c17.9,0,32.4,14.5,32.4,32.4l0,0L777,906.5c0,17.9,14.5,32.4,32.4,32.4l0,0"/>
	<path class="st75" d="M129.5,1003.6c0-17.9,14.5-32.4,32.4-32.4l0,0L129.5,1003.6c17.9,0,32.4-14.5,32.4-32.4l0,0"/>
	<path class="st76" d="M226.6,971.2c17.9,0,32.4,14.5,32.4,32.4l0,0L226.6,971.2c0,17.9,14.5,32.4,32.4,32.4l0,0"/>
	<path class="st77" d="M194.2,1036c0-17.9,14.5-32.4,32.4-32.4l0,0L194.2,1036c17.9,0,32.4-14.5,32.4-32.4l0,0"/>
	<path class="st78" d="M323.8,1036c0-35.8,29-64.8,64.8-64.8L323.8,1036c35.8,0,64.8-29,64.8-64.8"/>
	<path class="st29" d="M388.5,971.2c17.9,0,32.4,14.5,32.4,32.4l0,0L388.5,971.2c0,17.9,14.5,32.4,32.4,32.4l0,0"/>
	<path class="st79" d="M777,971.2c35.8,0,64.8,29,64.8,64.8L777,971.2c0,35.8,29,64.8,64.8,64.8"/>
	<path class="st80" d="M906.5,1036c0-35.8,29-64.8,64.7-64.8L906.5,1036c35.8,0,64.7-29,64.7-64.8"/>
</g>
</svg>
