<?xml version="1.0" encoding="utf-8"?>
<!-- Generator: Adobe Illustrator 26.2.0, SVG Export Plug-In . SVG Version: 6.00 Build 0)  -->
<svg version="1.1" id="Laag_1" xmlns="http://www.w3.org/2000/svg" xmlns:xlink="http://www.w3.org/1999/xlink" x="0px" y="0px"
	 viewBox="0 0 1080 1080" style="enable-background:new 0 0 1080 1080;" xml:space="preserve">
<style type="text/css">
	.st0{fill:#3A7F0D;}
</style>
<g>
	<g id="ceoPSA_00000036974285603923472620000001977751839489837465_">
		<g>
			<path class="st0" d="M632.5,317.9C611,387.5,514.4,376.2,507,375.4c4.1-49.8,16.8-94.7,63.5-124c-13.9,3.5-25.1,9.3-35.1,17.4
				c-22.5,18.2-34.2,42.8-41.4,70c-2.3,8.6-3.7,17.5-5.6,26.8c-6.7-11-11.9-22.4-15-34.6c-10.3-40.5,7.4-75.1,47.2-93.3
				c13.4-6.1,27.1-12,39.8-19.3c14.3-8.3,26-19.7,32.2-35.6c3.2-8,3.6-12.1,2.8-26.8c1.2,1.5,2,2.3,2.7,3.3
				c18.8,27.6,32.6,57.5,38.5,90.6C640.7,272.8,639.5,295.5,632.5,317.9z"/>
		</g>
	</g>
	<g id="ceoPSA_00000102527318660330609280000001518226161721425821_">
		<g>
			<path class="st0" d="M448.4,317.5c34,64.4-42.3,124.8-48.1,129.4c-32.3-38.1-55.1-78.9-42.8-132.6c-7.3,12.3-11.2,24.3-12.5,37.1
				c-3.1,28.7,6.1,54.5,20.2,78.8c4.5,7.7,9.8,15,15,22.9c-12.5-3-24.2-7.4-35.1-13.9c-35.9-21.4-47.9-58.3-32.6-99.3
				c5.2-13.8,10.7-27.6,14.5-41.8c4.3-16,4.4-32.3-2.4-48c-3.4-7.9-6-11.1-17-20.9c1.9,0.2,3.1,0.2,4.2,0.4
				c32.9,6.2,63.7,17.6,91.3,36.8C422.3,279.9,437.5,296.8,448.4,317.5z"/>
		</g>
	</g>
	<g id="ceoPSA_00000063615442310091794820000003382627972706074509_">
		<g>
			<path class="st0" d="M317.9,447.5c69.5,21.5,58.3,118.2,57.5,125.5c-49.8-4.1-94.7-16.8-124-63.5c3.5,13.9,9.3,25.1,17.4,35.1
				c18.2,22.5,42.8,34.2,70,41.4c8.6,2.3,17.5,3.7,26.8,5.6c-11,6.7-22.4,11.9-34.6,15c-40.5,10.3-75.1-7.4-93.3-47.2
				c-6.1-13.4-12-27.1-19.3-39.8c-8.3-14.3-19.7-26-35.6-32.2c-8-3.2-12.1-3.6-26.8-2.8c1.5-1.2,2.3-2,3.3-2.7
				c27.6-18.8,57.5-32.6,90.6-38.5C272.8,439.3,295.5,440.5,317.9,447.5z"/>
		</g>
	</g>
	<g id="ceoPSA_00000070799673312068722260000005522419448991246505_">
		<g>
			<path class="st0" d="M317.5,631.6c64.4-34,124.8,42.3,129.4,48.1c-38.1,32.3-78.9,55.1-132.6,42.8c12.3,7.3,24.3,11.2,37.1,12.5
				c28.7,3.1,54.5-6.1,78.8-20.2c7.7-4.5,15-9.8,22.9-15c-3,12.5-7.4,24.2-13.9,35.1c-21.4,35.9-58.3,47.9-99.3,32.6
				c-13.8-5.2-27.6-10.7-41.8-14.5c-16-4.3-32.3-4.4-48,2.4c-7.9,3.4-11.1,6-20.9,17c0.2-1.9,0.2-3.1,0.4-4.2
				c6.2-32.9,17.6-63.7,36.8-91.3C279.9,657.7,296.8,642.5,317.5,631.6z"/>
		</g>
	</g>
	<g id="ceoPSA_00000124142016737572384500000008594901061609587080_">
		<g>
			<path class="st0" d="M447.5,762.1c21.5-69.5,118.2-58.3,125.5-57.5c-4.1,49.8-16.8,94.7-63.5,124c13.9-3.5,25.1-9.3,35.1-17.4
				c22.5-18.2,34.2-42.8,41.4-70c2.3-8.6,3.7-17.5,5.6-26.8c6.7,11,11.9,22.4,15,34.6c10.3,40.5-7.4,75.1-47.2,93.3
				c-13.4,6.1-27.1,12-39.8,19.3c-14.3,8.3-26,19.7-32.2,35.6c-3.2,8-3.6,12.1-2.8,26.8c-1.2-1.5-2-2.3-2.7-3.3
				c-18.8-27.6-32.6-57.5-38.5-90.6C439.3,807.2,440.5,784.5,447.5,762.1z"/>
		</g>
	</g>
	<g id="ceoPSA_00000093883145892350790570000011547017463895175052_">
		<g>
			<path class="st0" d="M631.6,762.5c-34-64.4,42.3-124.8,48.1-129.4c32.3,38.1,55.1,78.9,42.8,132.6c7.3-12.3,11.2-24.3,12.5-37.1
				c3.1-28.7-6.1-54.5-20.2-78.8c-4.5-7.7-9.8-15-15-22.9c12.5,3,24.2,7.4,35.1,13.9c35.9,21.4,47.9,58.3,32.6,99.3
				c-5.2,13.8-10.7,27.6-14.5,41.8c-4.3,16-4.4,32.3,2.4,48c3.4,7.9,6,11.1,17,20.9c-1.9-0.2-3.1-0.2-4.2-0.4
				c-32.9-6.2-63.7-17.6-91.3-36.8C657.7,800.1,642.5,783.2,631.6,762.5z"/>
		</g>
	</g>
	<g id="ceoPSA_00000049190372205795498170000013113637513131379116_">
		<g>
			<path class="st0" d="M762.1,632.5C692.5,611,703.8,514.4,704.6,507c49.8,4.1,94.7,16.8,124,63.5c-3.5-13.9-9.3-25.1-17.4-35.1
				c-18.2-22.5-42.8-34.2-70-41.4c-8.6-2.3-17.5-3.7-26.8-5.6c11-6.7,22.4-11.9,34.6-15c40.5-10.3,75.1,7.4,93.3,47.2
				c6.1,13.4,12,27.1,19.3,39.8c8.3,14.3,19.7,26,35.6,32.2c8,3.2,12.1,3.6,26.8,2.8c-1.5,1.2-2.3,2-3.3,2.7
				c-27.6,18.8-57.5,32.6-90.6,38.5C807.2,640.7,784.5,639.5,762.1,632.5z"/>
		</g>
	</g>
	<g id="ceoPSA_00000159445135036698481770000017513238634292773535_">
		<g>
			<path class="st0" d="M762.5,448.4c-64.4,34-124.8-42.3-129.4-48.1c38.1-32.3,78.9-55.1,132.6-42.8c-12.3-7.3-24.3-11.2-37.1-12.5
				c-28.7-3.1-54.5,6.1-78.8,20.2c-7.7,4.5-15,9.8-22.9,15c3-12.5,7.4-24.2,13.9-35.1c21.4-35.9,58.3-47.9,99.3-32.6
				c13.8,5.2,27.6,10.7,41.8,14.5c16,4.3,32.3,4.4,48-2.4c7.9-3.4,11.1-6,20.9-17c-0.2,1.9-0.2,3.1-0.4,4.2
				c-6.2,32.9-17.6,63.7-36.8,91.3C800.1,422.3,783.2,437.5,762.5,448.4z"/>
		</g>
	</g>
</g>
</svg>
