<?xml version="1.0" encoding="utf-8"?>
<!-- Generator: Adobe Illustrator 26.2.0, SVG Export Plug-In . SVG Version: 6.00 Build 0)  -->
<svg version="1.1" id="Laag_1" xmlns="http://www.w3.org/2000/svg" xmlns:xlink="http://www.w3.org/1999/xlink" x="0px" y="0px"
	 viewBox="0 0 1000 1000" style="enable-background:new 0 0 1000 1000;" xml:space="preserve">
<style type="text/css">
	.st0{fill:#EFEFEF;}
</style>
<g>
	<g transform="translate(0.000000,512.000000) scale(0.100000,-0.100000)">
		<path class="st0" d="M8467.5-1063.1c-31.3,2.2-66.7-9.2-89.8-29c-11.4-9.6-63.2-97.3-142.3-241.4l-124.1-225.8l-81.7,181.3
			c-53.5,117.4-89.1,187.1-102.5,198c-66.6,55.1-164.5,30.5-195.3-49.4c-5.8-15.3-10.5-38.3-9.2-50.4
			c0.9-12.8,55.3-141.3,120.8-286.4l119.2-263.6l-201-365.8c-110.3-200.8-201.9-362.7-203.8-359.8c-31,46.1-422.4,692.4-425.1,701.9
			c-2.8,7.7,31.5,100.6,98.9,263.4c56.4,138,105.8,263.2,109.6,279.6c7.9,35.3-10.7,89.5-39.1,113.1c-31.4,26.1-69.4,35.5-108.4,27
			c-59.2-13.2-68.7-27.4-149.2-223.5c-39.3-95.5-74.1-174.9-77.3-177.6c-2.5-3-63.1,91.9-134.1,209.2
			c-70.7,118-137.8,221.8-147.8,230.8c-33.1,27.9-71.8,35.9-114.1,23.1c-61.4-17.3-99.3-76.6-87.1-136.1
			c2.8-15.7,64.9-125.5,137.2-245.3c72.1-118.8,129.7-217.4,127.6-218c-2.1-0.6-87.4,7.5-189.9,18.1c-141.7,14.5-194.1,16.8-220,8.2
			c-99.3-31.7-111.3-172.1-18.7-223c11.5-6.3,143.7-23.5,307.8-40.6l286.8-29.1l214.9-354c118.1-195.2,213.8-356,212.6-358
			c-1.1-2-188.1-7.6-416.2-12.5l-414-8.5l-177.7,226.1c-104.6,133.2-187.1,231.4-200,238.4c-92.7,50.9-205-33.5-178.2-135.3
			c7.2-26.9,35.7-68,123.6-178.8c62.9-79.4,115.5-147.1,117.1-150.6c1.6-3.5-111.5-9.2-251.1-11.7c-138.9-2.9-265.9-9.7-280.6-15.7
			c-103.8-39.8-95.7-196.5,12.5-230.5c13-3.6,136.6-4.6,274.1-0.9c137.2,3,249.7,2.8,248.5-1c-0.5-4.1-48.9-76.1-108.4-160.5
			c-122.4-173.1-129.2-188.7-108.6-245.8c30-81.6,139.1-109,197.3-49.4c11.9,12,91,120.8,177.2,242.4
			c102.6,145.2,160.2,222.7,169.3,224.8c9.4,2.7,764.5,18.4,820.4,17.6c3.5-0.2-84.1-164.2-194.4-365l-201-365.8l-286.4-40.7
			c-157.6-22.5-295.3-45.5-306.5-51.7c-10.9-5.4-27.8-21.7-37.6-34.8c-51-68.8-19.1-164.6,63-191.3c16.4-5.5,94.3,1.9,221.4,20.1
			L6803-3939l-127.6-237.1c-122.4-227.6-127.7-238.8-123.8-263.8c6.7-50.3,22.4-73,65-96.4c42.6-23.4,70.2-24.5,116.2-3.1
			c23.2,10.1,29.8,20.6,156.3,246l131.7,234.9l81.7-181.3c52.8-117,88.4-186.8,101.8-197.7c66.6-55.1,164.5-30.5,195.3,49.4
			c5.8,15.3,10.5,38.2,9.2,50.4c-0.9,12.8-55.3,141.3-120.8,286.4l-119.3,263.6l201,365.8c110.3,200.8,201.9,362.7,204.5,359.5
			c30.3-45.7,421.7-692.1,424.5-701.5c2.8-7.7-31.8-99.6-98.9-263.4c-56.4-138-105.8-263.1-109.6-279.6
			c-19-81.1,63.2-158.9,147.5-140.1c59.2,13.2,69.1,28.1,147.7,220.8c38.8,93.1,73,172.9,77,176.9c4.7,5.4,51.3-65.2,136-205.9
			c70.7-118,137.8-221.8,148.5-231.2c32.4-27.5,71.1-35.6,113.4-22.7c61.4,17.3,99.3,76.6,87.1,136.1
			c-2.8,15.7-64.9,125.4-137.2,245.3c-72.7,119.2-128.6,217.7-124.8,218.2s89.1-7.6,189.9-18.1c140.6-14.8,190.6-16.7,217.2-8.4
			c100.3,32,111.3,172.1,18.7,223c-12.8,7.1-139.9,24.1-308.5,40.9l-286.2,28.7l-214.9,354c-118.1,195.2-213.8,356-212.6,358
			s188.1,7.6,416.2,12.5l414,8.5l178.3-226.6c102.4-129.3,187.8-231.7,199.3-238c92.6-50.9,204.7,34.6,178.2,135.3
			c-7.2,26.8-35.7,68-123.6,178.8c-62.9,79.4-115.5,147.1-117.1,150.6c-1.6,3.5,111.5,9.1,251.1,11.7c140,3.2,265.9,9.7,280.6,15.7
			c103.8,39.8,95.7,196.5-11.8,230.1c-13.7,4-137.2,5-274.8,1.3c-162.1-3.4-248.7-2.4-246.7,4.4c1.3,5.5,50.3,77.1,108.1,159.8
			c120.5,169.7,127.7,186,107.1,243.1c-29.3,81.2-139.1,109-197.3,49.4c-11.9-12-91-120.8-177.2-242.4
			c-86.2-121.7-160.2-222.7-164.4-223.9c-7.3-2.1-759-19.6-811.4-19l-20,0.4l201,365.8l200.6,365.1l286.4,40.7
			c157.6,22.5,295.3,45.5,306.5,51.7c10.9,5.4,27.8,21.7,37.6,34.8c51,68.8,19.1,164.6-63,191.3c-16.4,5.5-94.3-1.9-221.4-20.1
			l-196.9-28.3l127.6,237.1c122.4,227.6,127.7,238.8,123.8,263.8c-1.9,14.2-7.9,36.9-13.6,48.9
			C8552.4-1099.2,8501.6-1065.2,8467.5-1063.1z"/>
	</g>
</g>
<g>
	<g transform="translate(0.000000,512.000000) scale(0.100000,-0.100000)">
		<path class="st0" d="M2739.1,4295.2c-28.5-13.1-54-40.1-64.8-68.7c-5.4-13.9-8.5-115.7-8.5-280v-257.7l-158.9,119.6
			c-103.4,77.1-168.2,121.1-185.2,124.2c-84.9,16.2-158.9-52.5-147.4-137.3c2.3-16.2,9.3-38.6,16.2-48.6
			c7-10.8,116.5-97.2,243.8-192.9l231.4-173.6v-417.4c0-229.1-2.3-415.1-5.4-413.5c-49.4,25.5-703.6,403.5-710.5,410.5
			c-6.2,5.4-20.8,103.4-40.1,278.5c-17,148.1-34,281.6-38.6,297.8c-10,34.7-52.5,73.3-88.7,80.2c-40.1,7.7-77.9-2.3-108-28.5
			c-45.5-40.1-47-57.1-23.1-267.7c11.6-102.6,19.3-189,17.7-192.9c-0.8-3.9-99.5,50.1-218.3,118.8
			c-118.8,69.4-227.6,128-240.7,131.1c-42.4,8.5-80.2-3.1-111.1-34.7c-45.5-44.7-50.1-115-10.8-161.2
			c10-12.4,117.3-78.7,238.4-148.9c120.4-69.4,218.4-128,216.8-129.6c-1.5-1.5-80.2-35.5-175.1-75.6
			c-131.1-55.5-178.2-78.7-196.7-98.8c-71.8-75.6-14.6-204.4,91-204.4c13.1,0,137.3,48.6,289.3,112.6l265.4,112.6l358.8-206.8
			c197.5-114.2,358.8-209.1,358.8-211.4c0-2.3-161.2-97.2-358.8-211.4l-358.8-206.8l-264.6,112.6
			c-155.8,66.4-275.4,112.7-290.1,112.7c-105.7,0-163.5-128.1-91-204.4c19.3-20.1,64-42.4,194.4-97.2c93.4-39.4,172-73.3,175.1-75.6
			c3.1-2.3-93.4-61.7-214.5-131.1c-120.4-69.4-228.4-136.5-238.4-148.9c-71.8-84.9,10.8-218.3,121.9-196
			c13.1,3.1,121.9,61.7,240.7,131.1c118.8,68.7,217.5,122.7,218.3,118.8c1.5-3.9-6.2-90.3-17.7-192.9
			c-23.9-210.6-22.4-227.6,23.1-267.7c65.6-57.1,174.4-28.5,196.7,51.7c4.6,16.2,21.6,149.7,38.6,297.8
			c20,176.7,33.2,272.4,40.1,278.5c6.9,6.9,661.2,384.2,710.5,410.4c3.1,1.5,5.4-184.4,5.4-413.5v-417.3l-231.4-173.6
			c-127.3-95.7-236.9-182.1-243.8-192.9c-6.9-10-13.9-32.4-16.2-48.6c-11.6-84.9,62.5-153.5,147.4-137.3c17,3.1,81.8,47,184.4,124.2
			L2665,973.2l2.3-269.3c2.3-258.4,3.1-270.8,18.5-290.8c30.1-40.9,54.8-53.2,103.4-53.2s73.3,12.4,103.4,53.2
			c15.4,20,16.2,32.4,18.5,290.8l2.3,269.3l158.9-119.6c102.6-77.1,167.4-121.1,184.4-124.2c84.9-16.2,158.9,52.5,147.4,137.3
			c-2.3,16.2-9.3,38.6-16.2,48.6c-6.9,10.8-116.5,97.2-243.8,192.9l-231.5,173.6v417.4c0,229.1,2.3,415.1,6.2,413.5
			c48.6-25.5,702.8-403.5,709.8-410.4c6.2-5.4,20.1-102.6,40.1-278.5c17-148.1,34-281.6,38.6-297.8
			c22.4-80.2,131.9-108.8,196.7-51.7c45.5,40.1,47,57.9,23.1,264.6c-10.8,100.3-19.3,186.7-17.7,192.1c1.5,7,76.4-32.4,218.3-115
			c118.8-69.4,227.6-128,241.5-131.1c41.7-8.5,79.5,3.1,110.3,34.7c45.5,44.7,50.1,115,10.8,161.2c-10,12.4-117.3,78.7-238.4,148.9
			c-121.1,69.4-217.5,128.9-214.4,131.1c3.1,2.3,81.8,36.3,175.1,75.6c130.4,54.8,175.1,77.1,194.4,97.2
			c72.5,76.4,14.6,204.4-91,204.4c-14.6,0-134.2-46.3-290.1-112.6l-264.6-112.6l-358.8,206.8c-197.5,114.2-358.8,209.1-358.8,211.4
			s161.2,97.2,358.8,211.4l358.8,206.8l265.4-112.7c152-64,276.2-112.6,289.3-112.6c105.7,0,162.8,128.9,91,204.4
			c-19.3,20-64,42.4-194.4,97.2c-93.4,39.4-172,73.3-175.1,75.6c-3.1,2.3,93.4,61.7,214.4,131.1c121.1,70.2,228.4,136.5,238.4,148.9
			c71.8,84.9-10.8,218.3-121.1,195.9c-13.9-3.1-122.7-61.7-241.5-131.1c-140.4-81-216.8-121.9-218.3-114.9
			c-1.5,5.4,6.9,91.8,17.7,192.1c23.9,206.8,22.4,224.5-23.1,264.6c-64.8,57.1-174.4,28.5-196.7-51.7
			c-4.6-16.2-21.6-149.7-38.6-297.8s-33.2-272.3-36.3-275.4c-5.4-5.4-655.8-382.7-702.1-407.3l-17.7-9.3v417.4v416.6l231.4,173.6
			c127.3,95.7,236.9,182.1,243.8,192.9c7,10,13.9,32.4,16.2,48.6c11.6,84.9-62.5,153.5-147.4,137.3c-17-3.1-81.8-47-184.4-124.2
			l-158.9-119.6l-2.3,269.3c-2.3,258.4-3.1,270.8-18.5,290.9c-8.5,11.6-24.7,28.5-35.5,36.3
			C2830.9,4304.4,2770,4309.8,2739.1,4295.2z"/>
	</g>
</g>
</svg>
